#!OML:ASF I:\Random Stuff\random\construction\7_22_03\Session 2\subj1.ASF
:FULLY-SPECIFIED
:DEGREES
1264
root -12.6266 17.5938 -6.12246 -397.751 83.2638 -424.749
lowerback 25.6346 2.39599 -8.1528
upperback 7.68996 1.52819 -1.66755
thorax -5.76735 0.985967 2.35226
lowerneck -17.3686 0.875171 -2.85794
upperneck 33.7464 7.40085 -9.99075
head 15.1198 1.72707 -2.25794
rclavicle 1.11319e-014 9.54166e-015
rhumerus -5.04338 13.9386 -85.169
rradius 86.4033
rwrist 0.861765
rhand -35.6127 15.2264
rfingers 7.12502
rthumb -8.73606 -14.5729
lclavicle 1.11319e-014 9.54166e-015
lhumerus 28.5563 -18.7412 50.0251
lradius 58.3764
lwrist -4.74539
lhand -34.4808 76.4951
lfingers 7.12502
lthumb -7.64365 253.663
rfemur -39.3041 -0.0720721 21.4527
rtibia 18.6457
rfoot -5.79246 -7.86139
rtoes -18.1981
lfemur -48.6848 -1.81958 -6.48196
ltibia 32.5373
lfoot -18.4042 1.6934
ltoes -7.95236
1265
root -12.618 17.593 -6.11694 -397.233 83.1106 -424.12
lowerback 25.5667 2.47893 -8.20177
upperback 7.73262 1.63415 -1.64361
thorax -5.6977 1.03361 2.37672
lowerneck -17.296 0.956374 -2.68198
upperneck 33.5528 7.47979 -10.1649
head 15.032 1.76905 -2.34131
rclavicle -3.18055e-014 -2.38542e-015
rhumerus -5.84307 13.3544 -85.447
rradius 88.3033
rwrist 1.15909
rhand -35.0985 15.7484
rfingers 7.12502
rthumb -8.23984 -14.0709
lclavicle -3.18055e-014 -2.38542e-015
lhumerus 28.5113 -19.0083 49.6989
lradius 58.4574
lwrist -4.49668
lhand -34.2723 76.5271
lfingers 7.12502
lthumb -7.4424 253.624
rfemur -39.1394 -0.0369028 21.6023
rtibia 18.5741
rfoot -5.74237 -7.77626
rtoes -18.6171
lfemur -48.4942 -1.91318 -6.278
ltibia 32.6026
lfoot -18.5724 1.91751
ltoes -6.34418
1266
root -12.6108 17.5929 -6.11221 -396.748 83.0831 -423.556
lowerback 25.5137 2.4866 -8.26222
upperback 7.7613 1.63618 -1.67877
thorax -5.63907 1.0332 2.37363
lowerneck -17.33 1.06603 -2.50275
upperneck 33.5101 7.58926 -10.2197
head 15.0346 1.82899 -2.37517
rclavicle 1.59028e-015 -4.77083e-014
rhumerus -6.37345 13.2042 -85.5981
rradius 89.9257
rwrist 0.873278
rhand -35.6501 17.4106
rfingers 7.12502
rthumb -8.77221 -12.3871
lclavicle 1.59028e-015 -4.77083e-014
lhumerus 28.4933 -19.2173 49.4817
lradius 58.4321
lwrist -4.64436
lhand -34.0061 76.7648
lfingers 7.12502
lthumb -7.18548 253.377
rfemur -39.0344 -0.0777391 21.6293
rtibia 18.5581
rfoot -5.73497 -7.69129
rtoes -18.4891
lfemur -48.3607 -2.06415 -6.18155
ltibia 32.6146
lfoot -18.6229 2.09004
ltoes -4.85373
1267
root -12.6035 17.595 -6.11063 -396.082 83.1526 -422.834
lowerback 25.4649 2.43429 -8.32673
upperback 7.79739 1.56092 -1.7434
thorax -5.56557 0.996138 2.36381
lowerneck -17.3027 1.05743 -2.45561
upperneck 33.419 7.51832 -10.1886
head 14.9786 1.81103 -2.38016
rclavicle 3.18055e-014 1.19271e-014
rhumerus -6.6466 13.3106 -85.5959
rradius 91.4056
rwrist 0.699663
rhand -36.8064 18.8714
rfingers 7.12502
rthumb -9.8879 -10.8764
lclavicle 3.18055e-014 1.19271e-014
lhumerus 28.3735 -19.0939 49.6615
lradius 58.3359
lwrist -5.13389
lhand -34.2357 76.884
lfingers 7.12502
lthumb -7.40709 253.266
rfemur -38.9615 -0.17842 21.5349
rtibia 18.5682
rfoot -5.77818 -7.58556
rtoes -17.8236
lfemur -48.2637 -2.17372 -6.25933
ltibia 32.5943
lfoot -18.5785 2.1934
ltoes -5.64377
1268
root -12.5965 17.5979 -6.11097 -395.477 83.1908 -422.172
lowerback 25.408 2.38014 -8.39113
upperback 7.84812 1.48833 -1.76841
thorax -5.47303 0.958997 2.39702
lowerneck -17.3049 1.1884 -2.42461
upperneck 33.3643 7.68283 -10.184
head 14.9643 1.88424 -2.35279
rclavicle -3.33958e-014 -5.80451e-014
rhumerus -6.84814 13.584 -85.5088
rradius 92.9709
rwrist 0.425403
rhand -37.9592 20.2883
rfingers 7.12502
rthumb -11 -9.40353
lclavicle -3.33958e-014 -5.80451e-014
lhumerus 28.1597 -18.7205 50.1157
lradius 58.3194
lwrist -5.31711
lhand -34.4472 76.9111
lfingers 7.12502
lthumb -7.61122 253.246
rfemur -38.8864 -0.281451 21.4874
rtibia 18.5623
rfoot -5.80799 -7.47065
rtoes -17.4806
lfemur -48.1494 -2.23987 -6.33406
ltibia 32.5746
lfoot -18.5927 2.27606
ltoes -6.44458
